<mxfile host="app.diagrams.net" modified="2024-04-01T16:58:23.591Z" agent="Mozilla/5.0 (Macintosh; Intel Mac OS X 10_15_7) AppleWebKit/537.36 (KHTML, like Gecko) Chrome/122.0.0.0 Safari/537.36" version="24.2.1" etag="BQHaTuSJIk5uvqrVuNJh" type="github">
  <diagram name="Page-1" id="0wFUWB4HiC1Fq1rPtZcO">
    <mxGraphModel>
      <root>
        <mxCell id="0" />
        <mxCell id="1" parent="0" />
      </root>
    </mxGraphModel>
  </diagram>
</mxfile>
